<?xml version="1.0" encoding="utf-8"?>
<!-- Generator: Adobe Illustrator 27.1.1, SVG Export Plug-In . SVG Version: 6.00 Build 0)  -->
<svg version="1.1" id="Layer_1" xmlns="http://www.w3.org/2000/svg" xmlns:xlink="http://www.w3.org/1999/xlink" x="0px" y="0px"
	 viewBox="0 0 500 387" style="enable-background:new 0 0 500 387;" xml:space="preserve">
<style type="text/css">
	.st0{fill:#EBEBEB;}
	.st1{fill:#F5F5F5;}
	.st2{fill:#FAFAFA;}
	.st3{fill:#F0F0F0;}
	.st4{fill:#E6E6E6;}
	.st5{fill:#E0E0E0;}
	.st6{fill:#90CAF9;}
	.st7{opacity:0.5;fill:#263238;enable-background:new    ;}
	.st8{opacity:0.7;fill:#FFFFFF;enable-background:new    ;}
	.st9{opacity:0.5;fill:#90CAF9;enable-background:new    ;}
	.st10{fill:#B55B52;}
	.st11{fill:#263238;}
	.st12{opacity:0.2;enable-background:new    ;}
	.st13{opacity:0.3;enable-background:new    ;}
	.st14{fill:#A02724;}
	.st15{opacity:0.6;fill:#FFFFFF;enable-background:new    ;}
	.st16{opacity:0.9;fill:#263238;enable-background:new    ;}
	.st17{fill:#FFFFFF;}
</style>
<g id="freepik--background-complete--inject-2">
	<rect y="333.9" class="st0" width="500" height="0.2"/>
	<rect x="332.1" y="340.8" class="st0" width="97.6" height="0.2"/>
	<rect x="289" y="346.5" class="st0" width="46.7" height="0.2"/>
	<rect x="430.7" y="350" class="st0" width="19.2" height="0.2"/>
	<rect x="126.5" y="346.7" class="st0" width="92.5" height="0.2"/>
	<rect x="97.7" y="346.7" class="st0" width="19.9" height="0.2"/>
	<rect x="57.8" y="342.4" class="st0" width="32.9" height="0.2"/>
	<path class="st0" d="M237,289.3H43.9c-3.1,0-5.7-2.6-5.7-5.7V12.2c0-3.1,2.6-5.7,5.7-5.7H237c3.2,0,5.7,2.6,5.7,5.7c0,0,0,0,0,0
		v271.4C242.7,286.8,240.2,289.3,237,289.3z M43.9,6.7c-3,0-5.5,2.4-5.5,5.5v271.4c0,3,2.4,5.5,5.5,5.5H237c3,0,5.5-2.4,5.5-5.5
		V12.2c0-3-2.4-5.5-5.5-5.5H43.9z"/>
	<path class="st0" d="M453.3,289.3H260.2c-3.2,0-5.7-2.6-5.7-5.7V12.2c0-3.1,2.6-5.7,5.7-5.7h193.1c3.1,0,5.7,2.5,5.7,5.7v271.4
		C459,286.8,456.5,289.3,453.3,289.3z M260.2,6.7c-3,0-5.5,2.4-5.5,5.5v271.4c0,3,2.4,5.5,5.5,5.5h193.1c3,0,5.5-2.4,5.5-5.5V12.2
		c0-3-2.4-5.5-5.5-5.5H260.2z"/>
	<rect x="79.9" y="212.3" class="st0" width="13.8" height="121.7"/>
	<rect x="93.7" y="212.3" class="st1" width="132.6" height="121.7"/>
	<rect x="98.5" y="217" class="st0" width="122.8" height="112.2"/>
	<rect x="100.5" y="219.2" class="st1" width="118.8" height="12.3"/>
	<rect x="100.5" y="233" class="st1" width="118.8" height="33.6"/>
	<rect x="100.5" y="268.1" class="st1" width="118.8" height="59.2"/>
	<path class="st2" d="M194.5,272.8h-69.1c-0.6,0-1-0.4-1-1l0,0c0-0.6,0.4-1,1-1h69.1c0.6,0,1,0.4,1,1l0,0
		C195.5,272.4,195.1,272.8,194.5,272.8z"/>
	<path class="st2" d="M194.5,237.8h-69.1c-0.6,0-1-0.4-1-1l0,0c0-0.6,0.4-1,1-1h69.1c0.6,0,1,0.4,1,1l0,0
		C195.5,237.4,195.1,237.8,194.5,237.8z"/>
	<path class="st2" d="M194.5,224h-69.1c-0.6,0-1-0.4-1-1l0,0c0-0.6,0.4-1,1-1h69.1c0.6,0,1,0.4,1,1l0,0
		C195.5,223.6,195.1,224,194.5,224z"/>
	<rect x="72.9" y="125.9" class="st3" width="167.4" height="54"/>
	<rect x="77.6" y="130.6" class="st4" width="157.9" height="44.6"/>
	<rect x="212.9" y="130.6" class="st5" width="22.7" height="44.6"/>
	<rect x="61.1" y="125.9" class="st4" width="11.8" height="54"/>
	<rect x="206.8" y="134.2" class="st3" width="9.9" height="41"/>
	<rect x="180.4" y="134.2" class="st5" width="26.4" height="41"/>
	<rect x="198.1" y="138.9" class="st2" width="5.6" height="36.3"/>
	<rect x="183.2" y="138.9" class="st0" width="14.9" height="36.3"/>
	<polygon class="st2" points="181.1,175.2 189.4,175.2 194.1,141 185.9,141 	"/>
	<polygon class="st0" points="181.1,175.2 159.1,175.2 163.9,141 185.9,141 	"/>
	<rect x="132.6" y="165.3" class="st4" width="41" height="9.9"/>
	<rect x="117.5" y="165.3" class="st5" width="15.1" height="9.9"/>
	<rect x="117.5" y="166.4" class="st3" width="13.8" height="7.6"/>
	<rect x="130.1" y="157.6" class="st3" width="41" height="7.7"/>
	<rect x="114.9" y="157.6" class="st4" width="15.1" height="7.7"/>
	<rect x="114.9" y="158.5" class="st3" width="13.8" height="5.9"/>
	<rect x="104.8" y="142" class="st3" width="8" height="33.2"/>
	<rect x="83.5" y="142" class="st5" width="21.4" height="33.2"/>
	<rect x="87.2" y="145.8" class="st2" width="7.7" height="29.4"/>
	<rect x="77.6" y="145.8" class="st0" width="9.6" height="29.4"/>
	<rect x="72.9" y="57.8" class="st3" width="167.4" height="54"/>
	<rect x="77.6" y="62.5" class="st4" width="157.9" height="44.6"/>
	<rect x="212.9" y="62.5" class="st5" width="22.7" height="44.6"/>
	<rect x="61.1" y="57.8" class="st4" width="11.8" height="54"/>
	<rect x="155.5" y="81" class="st3" width="8.6" height="26.1"/>
	<rect x="142.7" y="81" class="st5" width="12.8" height="26.1"/>
	<rect x="146.1" y="75.5" class="st2" width="4.8" height="31.6"/>
	<rect x="133.1" y="75.5" class="st0" width="12.9" height="31.6"/>
	<polygon class="st3" points="217.4,107.1 224.5,107.1 228.7,77.3 221.5,77.3 	"/>
	<polygon class="st5" points="217.4,107.1 198.2,107.1 202.3,77.3 221.5,77.3 	"/>
	<rect x="97.9" y="97.8" class="st1" width="38.4" height="9.2"/>
	<rect x="83.7" y="97.8" class="st5" width="14.2" height="9.2"/>
	<rect x="83.7" y="98.9" class="st3" width="12.9" height="7.1"/>
	<rect x="99.9" y="83.1" class="st2" width="31.1" height="7.5"/>
	<rect x="88.4" y="83.1" class="st5" width="11.5" height="7.5"/>
	<rect x="88.5" y="84" class="st1" width="10.5" height="5.8"/>
	<rect x="180.5" y="99.6" class="st2" width="31.1" height="7.5"/>
	<rect x="169.1" y="99.6" class="st5" width="11.5" height="7.5"/>
	<rect x="169.1" y="100.4" class="st1" width="10.5" height="5.8"/>
	<rect x="95.6" y="90.6" class="st3" width="38.4" height="7.2"/>
	<rect x="81.4" y="90.6" class="st4" width="14.2" height="7.2"/>
	<rect x="81.4" y="91.4" class="st3" width="12.9" height="5.6"/>
	<polygon class="st1" points="306.5,69.7 423.9,69.7 428.9,333.9 311.6,333.9 	"/>
	<path class="st3" d="M424.6,314.2l-4.3-225.5c-0.2-8.4-7-15.1-15.4-15.1h-78.5c-8.5,0-15.4,6.9-15.4,15.4c0,0.1,0,0.2,0,0.3
		l4.3,225.5c0.2,8.4,7,15.1,15.4,15.1h78.5c8.5,0,15.4-6.9,15.4-15.4C424.6,314.4,424.6,314.3,424.6,314.2z"/>
	<polygon class="st4" points="306.5,69.7 304.3,69.7 309.3,333.9 311.6,333.9 	"/>
	<polygon class="st2" points="369.2,73.7 386.9,73.7 401.4,329.9 383.7,329.9 	"/>
	<polygon class="st2" points="355.4,73.7 364.2,73.7 378.7,329.9 369.9,329.9 	"/>
</g>
<g id="freepik--Shadow--inject-2">
	<ellipse id="freepik--path--inject-2" class="st1" cx="250" cy="367.8" rx="193.9" ry="11.3"/>
</g>
<g id="freepik--Character--inject-2">
	<path class="st6" d="M182.3,267.8h86.2c-3-6.5-8.5-10.5-14.4-10.5h-67L182.3,267.8z"/>
	<path class="st6" d="M167.8,267.8h34.5c-3-6.5-8.5-10.5-14.4-10.5h-12.2C169.8,257.2,166.9,260.6,167.8,267.8L167.8,267.8z"/>
	<path class="st7" d="M167.8,267.8h34.5c-3-6.5-8.5-10.5-14.4-10.5h-12.2C169.8,257.2,166.9,260.6,167.8,267.8L167.8,267.8z"/>
	<polygon class="st6" points="228.6,359 221.1,359 221.1,267.8 212.9,267.8 212.9,359 205.4,359 197.4,366.5 212.9,366.5 
		221.1,366.5 236.6,366.5 	"/>
	<polygon class="st8" points="228.6,359 221.1,359 221.1,267.8 212.9,267.8 212.9,359 205.4,359 197.4,366.5 212.9,366.5 
		221.1,366.5 236.6,366.5 	"/>
	<rect x="212.9" y="267.8" class="st9" width="8.2" height="3.1"/>
	<polygon class="st10" points="274.7,356.5 283.7,354.2 281.5,332.7 272.6,335 	"/>
	<path class="st11" d="M284.1,350.3l-10.3,1.3c-0.4,0-0.6,0.4-0.6,0.7c0,0,0,0,0,0l0.5,8.2c0.1,0.9,0.9,1.5,1.8,1.4
		c3.6-0.5,5-0.9,9.5-1.8c4.4-0.8,8.7-1.9,13-3.2c3.6-1.2,2.3-4.8,0.7-4.6c-4,0.5-10.2,0-13-1.7C285.2,350.3,284.6,350.2,284.1,350.3
		z"/>
	<polygon class="st12" points="272.6,335 281.6,332.7 282.6,343.1 273.6,345 	"/>
	<path class="st11" d="M214,227.1c0,0,66.5-2.2,66.7,24.3c0.3,38.1,4.5,85.4,4.5,85.4l-16.7,2.5c0,0-11.4-45.4-11.2-75.1
		c-18.7-5.3-67.2-1.8-72.9-17.3c-4.7-12.7-2.2-19.7-2.2-19.7H214z"/>
	<path class="st13" d="M241.2,235.3c0,0-2,15.2,4.9,26.8c3.7,0.4,7.4,1.1,11.1,2c0,2.9,0.1,5.8,0.5,8.6
		C268.8,256.2,259.7,237.3,241.2,235.3z"/>
	<polygon class="st6" points="267.1,343.6 286.5,340 286.8,332.5 265.3,336.2 	"/>
	<path class="st6" d="M287.5,351.4c-0.8,0.1-1.7,0.1-2.5,0c-0.1,0-0.2-0.1-0.2-0.1c0-0.1,0-0.2,0.1-0.2c0.3-0.2,2.6-2.4,3.8-2.1
		c0.3,0.1,0.5,0.3,0.6,0.5c0.2,0.4,0.1,0.9-0.1,1.2C288.7,351.2,288.1,351.4,287.5,351.4z M285.6,351c1.7,0.1,2.9-0.1,3.3-0.6
		c0.2-0.2,0.2-0.5,0-0.8c0-0.1-0.1-0.2-0.3-0.3C288,349.3,286.6,350.2,285.6,351L285.6,351z"/>
	<path class="st6" d="M285.1,351.4L285.1,351.4c-0.2,0-0.2-0.1-0.2-0.2c0-0.1-0.6-2.7,0.2-3.7c0.2-0.3,0.5-0.4,0.9-0.4
		c0.4,0,0.7,0.2,0.9,0.5c0.3,1-0.8,3.1-1.6,3.7L285.1,351.4z M285.9,347.5c-0.2,0-0.3,0.1-0.4,0.2c-0.5,0.6-0.4,2.1-0.2,3
		c0.7-0.8,1.4-2.4,1.2-3C286.4,347.7,286.3,347.5,285.9,347.5L285.9,347.5z"/>
	<polygon class="st10" points="235.9,358.5 245.1,357.3 246.6,335.5 237.4,336.7 	"/>
	<path class="st11" d="M245.3,356l-10.4-0.3c-0.4,0-0.7,0.2-0.7,0.6l-0.8,8.2c0,0.9,0.7,1.7,1.6,1.7c3.6,0,5.3-0.1,9.9,0
		c2.8,0.1,8.3,0.5,12.2,0s3.3-4.3,1.6-4.4c-4-0.3-9.3-3.1-11.8-5.2C246.4,356.2,245.9,356.1,245.3,356z"/>
	<path class="st6" d="M248.5,357.8c-0.8,0-1.7-0.2-2.4-0.4c-0.1,0-0.1-0.1-0.2-0.2c0-0.1,0-0.2,0.1-0.2c0.3-0.2,3-1.9,4.1-1.4
		c0.3,0.1,0.4,0.4,0.5,0.6c0.1,0.4,0,0.9-0.3,1.2C249.8,357.7,249.1,357.8,248.5,357.8z M246.7,357.1c1.6,0.4,2.9,0.4,3.3,0
		c0.2-0.2,0.3-0.5,0.2-0.8c0-0.1-0.1-0.3-0.2-0.3C249.3,355.7,247.8,356.4,246.7,357.1L246.7,357.1z"/>
	<path class="st6" d="M246.1,357.4c0,0-0.1,0-0.1,0c-0.1,0-0.1-0.1-0.1-0.2c0-0.1-0.1-2.8,0.8-3.6c0.2-0.2,0.6-0.3,0.9-0.3
		c0.4,0,0.7,0.3,0.8,0.7c0.2,1-1.2,2.9-2.2,3.4C246.2,357.4,246.2,357.4,246.1,357.4z M247.5,353.7c-0.2,0-0.3,0.1-0.5,0.2
		c-0.6,0.5-0.7,2-0.7,2.9c0.8-0.7,1.8-2.1,1.7-2.8c0-0.1-0.1-0.3-0.4-0.3L247.5,353.7z"/>
	<polygon class="st12" points="237.4,336.7 246.6,335.5 245.7,348 236.6,348.7 	"/>
	<path class="st11" d="M191.4,227.1c0,0,66.4,6.3,64,26.3c-3.5,28.8-5.2,90.9-5.2,90.9l-16.9,0.7c0,0-7.2-56-3.5-85.5
		c-17.2,0-59.2,1.2-63.1-9.1c-3.4-9.1-2.2-23.2-2.2-23.2L191.4,227.1z"/>
	<polygon class="st6" points="231.4,346 251.7,345 252.4,336.1 230.1,337.7 	"/>
	<path class="st10" d="M220.1,167.4l0.6,4.6c0.2,1.6,0.4,3.1,0.7,4.7c0.5,3.1,1,6.2,1.6,9.2s1.3,6,2.1,8.9c0.7,2.7,1.8,5.3,3,7.9
		c0.5,0.9,1.1,1.8,1.7,2.7c0.1,0.1,0.3,0.3,0.5,0.5s0.4,0.4,0.6,0.6c0.5,0.4,1,0.8,1.5,1.2c2.4,1.6,4.9,3.1,7.5,4.3
		c5.7,2.6,11.6,4.8,17.5,6.7l-1.1,6.9c-3.4-0.1-6.8-0.4-10.2-1c-1.7-0.3-3.4-0.6-5-1s-3.4-0.8-5.1-1.3c-3.5-1-7-2.4-10.2-4.1
		c-0.9-0.5-1.7-1-2.6-1.6c-0.4-0.3-0.8-0.6-1.3-0.9c-0.5-0.3-0.9-0.7-1.3-1.1c-1.6-1.5-3-3.3-4.1-5.2c-1.9-3.2-3.4-6.7-4.6-10.2
		c-1.1-3.3-2.1-6.7-2.9-10.1c-0.8-3.4-1.4-6.7-1.9-10.1c-0.3-1.7-0.5-3.4-0.7-5s-0.4-3.3-0.5-5.2L220.1,167.4z"/>
	<path class="st6" d="M206.1,160.7c6.8-6.6,15.1-2.7,18.5,9.6c1.9,6.6,3.2,13.3,3.9,20.1l-21.5,4.4
		C203,183.2,199.1,167.4,206.1,160.7z"/>
	<path class="st13" d="M213,174.1c-1.5-1.4-5.9,4.8-8.6,12.5c0.8,2.9,1.6,5.7,2.5,8.3l12.9-2.7C218.8,184.5,216.4,177.2,213,174.1z"
		/>
	<path class="st10" d="M256.2,216.8l5.1,0.3l-4.1,9.4c0,0-8.8-0.2-8.6-4.5l1.6-2.1C251.7,218,253.9,216.9,256.2,216.8z"/>
	<polygon class="st10" points="266.9,217.9 262.5,226.5 257.3,226.5 261.4,217.1 	"/>
	<path class="st6" d="M206.9,154.1l-10.3-2.9l-13.2-0.6c-4.1-0.2-7.9,2.4-9.2,6.3c-2.5,7.7-4.9,18.9-6.5,28.5
		c-1.9,10.8-2.9,27-3.1,41.7H214c1.1-30.7,5-48.9,6.8-59c0.7-4-1.4-8.1-5.1-9.8L206.9,154.1z"/>
	<path class="st13" d="M172.6,162.2c-1.9,7-3.6,15.6-5,23.1c-1.2,7.7-2,15.5-2.4,23.3c8.1-0.8,17.1-10.2,20-22.8
		C188,173.5,181.4,160.7,172.6,162.2z"/>
	<path class="st10" d="M200.7,134.5l4,6.1l5.4,8.3c-0.7,0.7-1.3,1.5-1.7,2.5c-1,2-1.8,3.5,2.4,6.4c0.9,0.6,1.4,1.7,1.3,2.8
		c-0.2,1.3-1.5,2.6-6.1,1.8c-4.4-0.8-8.4-3.1-11.4-6.3c-1.5-1.5-1.2-2.6,0.3-4.2C199,147.3,200.3,140.2,200.7,134.5z"/>
	<path class="st12" d="M208.8,146.8l-3.3-5.9l-0.2,0.5c-0.3,0.7-0.5,1.5-0.7,2.3c-0.6,2.6,1.4,6.4,3.7,8.2l0.3-0.5
		c0.4-0.9,0.9-1.7,1.5-2.4c0,0,0.1-0.1,0.1-0.1L208.8,146.8z"/>
	<path class="st11" d="M207.2,170.4c-0.2,0-0.3-0.2-0.3-0.3c0-0.1,0.1-0.2,0.2-0.2l0.7-0.2c3.6-0.8,12.1-2.6,11.3-35.2
		c0-0.2,0.1-0.3,0.3-0.3l0,0c0.2,0,0.3,0.1,0.3,0.3c0.8,33-8,34.9-11.8,35.8C207.8,170.2,207.5,170.3,207.2,170.4L207.2,170.4z"/>
	<path class="st11" d="M227.6,125.4c-1.5-4.4-6.7-1.5-6.7-1.5s-0.1,9.1,2.7,11.5S229,129.8,227.6,125.4z"/>
	<path class="st10" d="M202.1,123.6c-1.6,9.1-3,14.3,0.4,20.1c3.3,5.8,10.6,7.8,16.4,4.5c2.1-1.2,3.7-2.9,4.8-5.1
		c3.8-7.5,5.8-21-2-27c-5.2-4.2-12.8-3.3-17,1.9C203.3,119.6,202.4,121.6,202.1,123.6z"/>
	<path class="st11" d="M200.4,129c-2.4,3.9,3.6,5.3,3.6,5.3s7.3-5.5,7.4-9.1C211.6,121.5,202.3,125.9,200.4,129z"/>
	<path class="st11" d="M198,130.4c-1.2-1-2.5-4.8-1.5-8.2s4.2-7,7.1-5.8c1.1-3.1,15.9-6.9,20.9,0c5.8,8.1,2.8,12.2-2.1,9.1l-8.8-2.9
		L198,130.4z"/>
	<path class="st11" d="M224.4,124.8c-2.4,2.8-11.3,2.1-11.3,2.1l2.9-3.2c-1.9,1.4-4.4,2.1-6.8,1.9c-4.4-0.2-2-4.7-2-4.7
		S228.8,119.5,224.4,124.8z"/>
	<path class="st10" d="M197.2,130.2c-0.1,2,0.6,4,1.8,5.5c1.7,2,4.2,0.4,4.8-2.1c0.5-2.2-0.2-5.6-2.3-6.7
		C199.3,125.9,197.3,127.7,197.2,130.2z"/>
	<path class="st6" d="M196.3,124.4c-0.5-3,0.4-6.1,2.4-8.5c-0.8,0.2-3.4-1.3,1.3-4.5s14.6-4,19.4-1.6c9.6,4.7,6.9,10.3,6.9,10.3
		L196.3,124.4z"/>
	<path class="st13" d="M196.3,124.4c-0.5-3,0.4-6.1,2.4-8.5c-0.8,0.2-3.4-1.3,1.3-4.5s14.6-4,19.4-1.6c9.6,4.7,6.9,10.3,6.9,10.3
		L196.3,124.4z"/>
	<path class="st6" d="M196.5,130.1c1.7,0.1,3.3-5,17.3-7.5c5.7-1,11.6,0.8,13.3,2.4s0.9-3.8,0.3-5.7s-9.4-3.5-15.1-2.8
		c-9.9,1.2-15.9,6.2-16.7,7.5S195,130.1,196.5,130.1z"/>
	<path class="st11" d="M201.7,131.5c0.4,0.8,0.1,1.8-0.7,2.3c-0.7,0.2-1.6-0.4-1.9-1.4c-0.4-0.8-0.1-1.8,0.7-2.3
		C200.5,129.9,201.4,130.5,201.7,131.5z"/>
	<path class="st11" d="M202.9,226.1c-1.7,0-2.9-0.5-3.5-1.4c-1.5-2.3,0.4-7,2.5-12.1c2-4.7,4-9.6,3.4-12.9c-1-6.4-0.1-14.4,0.8-22.2
		c0.3-2.6,0.6-5,0.8-7.3c-3.9-4-7.8-9.1-5.7-19.7c1.4-7,1.1-12.8-0.9-17.3c-0.1-0.1,0-0.3,0.1-0.4c0,0,0,0,0,0
		c0.1-0.1,0.3,0,0.4,0.1c2,4.6,2.3,10.6,0.9,17.6c-2,10.4,1.9,15.4,5.7,19.3c0.1,0.1,0.1,0.1,0.1,0.2c-0.2,2.4-0.5,4.9-0.8,7.5
		c-0.9,7.7-1.8,15.7-0.8,22c0.6,3.5-1.5,8.4-3.5,13.2s-3.9,9.5-2.6,11.5c0.5,0.8,1.5,1.2,3,1.2c0.2,0,0.3,0.1,0.3,0.3
		C203.1,225.9,203,226.1,202.9,226.1L202.9,226.1z"/>
	<path class="st11" d="M215.9,132c-0.2,0.7,0,1.4,0.4,1.6s1-0.3,1.2-1s0.1-1.4-0.4-1.6S216.1,131.3,215.9,132z"/>
	
		<ellipse transform="matrix(0.2872 -0.9579 0.9579 0.2872 30.6008 311.5392)" class="st11" cx="224.6" cy="135.2" rx="1.4" ry="0.9"/>
	<path class="st14" d="M221.1,134.5c0,2.1,0.2,4.2,0.7,6.3c-1.4,0.5-3-0.7-3-0.7L221.1,134.5z"/>
	<path class="st11" d="M216.9,144c-1.7-0.6-3-1.8-3.8-3.3c0-0.1,0-0.2,0.1-0.3c0.1,0,0.2,0,0.3,0.1c0,0,0,0,0,0
		c0.8,1.7,2.4,2.9,4.3,3.3c0.1,0,0.2,0.1,0.2,0.3c0,0.1-0.1,0.2-0.3,0.2C217.4,144.2,217.1,144.1,216.9,144z"/>
	<path class="st11" d="M215.2,129c-0.1,0-0.1-0.1-0.2-0.1c-0.1-0.2-0.1-0.5,0.1-0.6c0,0,0,0,0,0c1.2-0.8,2.6-0.9,3.9-0.4
		c0.2,0.1,0.3,0.3,0.3,0.6c-0.1,0.2-0.3,0.3-0.6,0.3c0,0,0,0-0.1,0c-1-0.4-2.2-0.3-3.1,0.4C215.5,129,215.3,129,215.2,129z"/>
	<path class="st11" d="M225.4,130.3c0-0.1,0-0.1,0-0.2c0.1-0.2,0.3-0.3,0.6-0.2c1.3,0.5,2.3,1.6,2.6,3c0,0.2-0.2,0.4-0.4,0.4
		c-0.2,0-0.4-0.1-0.4-0.3c-0.3-1.1-1-1.9-2.1-2.3C225.5,130.6,225.4,130.5,225.4,130.3z"/>
	<path class="st10" d="M188,164.3c-0.8,1.5-1.7,3.2-2.6,4.8s-1.7,3.3-2.5,5c-1.6,3.3-3.2,6.7-4.6,10c-1.4,3.3-2.5,6.6-3.5,10
		c-0.4,1.5-0.7,3-0.8,4.6c-0.2,1.3,0.1,2.8,0,2.5c0.5,0.8,1.1,1.5,1.9,2c1.3,0.9,2.6,1.7,4,2.4c3.2,1.6,6.6,2.9,10,3.9
		c3.5,1.1,7.1,2.1,10.8,3.1s7.4,1.8,11.1,2.6L211,222c-8-0.1-15.9-1-23.8-2.5c-4.1-0.8-8.1-1.9-12-3.4c-2.2-0.8-4.2-1.8-6.2-3
		c-2.5-1.5-4.7-3.6-6.2-6.1c-0.5-0.8-0.8-1.7-1.1-2.6l-0.2-0.7l-0.1-0.5c-0.1-0.4-0.1-0.7-0.2-1.1c-0.2-1.3-0.3-2.6-0.2-3.9
		c0.1-2.3,0.3-4.6,0.8-6.9c0.9-4.1,2-8.2,3.6-12.1c1.4-3.8,3.1-7.5,4.8-11.2c0.9-1.8,1.8-3.6,2.7-5.4c0.9-1.8,1.9-3.5,3-5.3
		L188,164.3z"/>
	<path class="st6" d="M180.4,150.7c9.3-1.4,13.9,6.6,9.5,18.5c-2.3,6.5-5.1,12.7-8.5,18.6l-20.1-8.8
		C164.9,167.3,170.8,152.2,180.4,150.7z"/>
	<path class="st10" d="M212.5,215.2l5.6,1.9l-7.4,7.1c0,0-9.1-3.2-7.2-7.2l2.3-1.3C207.8,214.6,210.3,214.4,212.5,215.2z"/>
	<polygon class="st10" points="224.6,220.9 216.3,225.8 210.7,224.2 218.1,217.1 	"/>
</g>
<g id="freepik--Desk--inject-2">
	<rect x="148.7" y="226.2" class="st6" width="207.6" height="6.8"/>
	<rect x="148.7" y="226.2" class="st15" width="207.6" height="6.8"/>
	<rect x="148.7" y="226.2" class="st9" width="41.4" height="6.8"/>
	<path class="st6" d="M300.1,224h-97.8c-1.2,0-2.2,1-2.2,2.2h102.3C302.3,225,301.3,224,300.1,224z"/>
	<path class="st6" d="M313,178.2h-66.9c-0.9,0-1.6,0.6-1.9,1.5l-11,41.2c-0.2,0.6,0.1,1.2,0.7,1.4c0.1,0.1,0.3,0.1,0.4,0.1h66.9
		c0.9,0,1.6-0.6,1.9-1.5l11-41.2c0.2-0.6-0.1-1.2-0.6-1.4C313.3,178.2,313.2,178.2,313,178.2z"/>
	<path class="st12" d="M244.3,179.7l-11,41.2c-0.2,0.6,0.1,1.2,0.7,1.4c0.1,0.1,0.3,0.1,0.4,0.1l11.8-44.2
		C245.3,178.3,244.5,178.9,244.3,179.7z"/>
	<path class="st12" d="M230.8,224h-28.6c-1.2,0-2.2,1-2.2,2.2h33C233,225,232,224,230.8,224z"/>
	<path class="st6" d="M191.6,367.8h4l-5.6-30.9h3.5v-4h-4.2l-17.4-95.9h2.6v-4h-9.9v4h2.6l-17.4,95.9h-4.2v4h3.5l-5.6,30.9h4
		l5.6-30.9H186L191.6,367.8z M153.6,332.9l15.9-87.2l15.8,87.2H153.6z"/>
	<path class="st6" d="M356.2,364.1h4l-5.6-27.2h3.5v-4h-4.2l-17.4-95.9h2.5v-4h-9.9v4h2.6l-17.4,95.9H310v4h3.5l-5.6,27.2h4
		l5.6-27.2h33.1L356.2,364.1z M318.2,332.9l15.8-87.2l15.9,87.2H318.2z"/>
	<path class="st11" d="M312.1,224h25.6c0.4,0,0.7,0.3,0.7,0.7v0.8c0,0.4-0.3,0.7-0.7,0.7h-25.6c-0.4,0-0.7-0.3-0.7-0.7v-0.8
		C311.4,224.3,311.7,224,312.1,224z"/>
</g>
<g id="freepik--Coding--inject-2">
	<path class="st16" d="M266.6,170.5c-0.7,0-1.3-0.6-1.3-1.3c0-0.1,0-0.1,0-0.2l4.1-46.2c0.1-0.8,0.8-1.4,1.6-1.4h56.3
		c0.7,0,1.3,0.6,1.3,1.3c0,0.1,0,0.1,0,0.2l-4.1,46.2c-0.1,0.8-0.8,1.4-1.6,1.4H266.6z"/>
	<polygon class="st17" points="314.1,135.8 281.5,135.8 281.6,134.6 314.2,134.6 	"/>
	<polygon class="st6" points="319.2,137.7 284.7,137.7 284.8,136.5 319.3,136.5 	"/>
	<polygon class="st6" points="313.1,139.6 284.5,139.6 284.6,138.4 313.2,138.4 	"/>
	<polygon class="st6" points="310,141.5 284.4,141.5 284.5,140.3 310.1,140.3 	"/>
	<polygon class="st17" points="301.9,144.7 280.7,144.7 280.8,143.5 302,143.5 	"/>
	<polygon class="st6" points="306.4,149.2 283.7,149.2 283.6,150.4 306.3,150.4 	"/>
	<polygon class="st6" points="302.7,147.3 283.8,147.3 283.7,148.5 302.5,148.5 	"/>
	<polygon class="st6" points="304.7,145.4 284,145.4 283.9,146.6 304.6,146.6 	"/>
	<polygon class="st17" points="300.6,159.3 279.4,159.3 279.5,158.1 300.7,158.1 	"/>
	<polygon class="st6" points="305.1,163.9 282.4,163.9 282.2,165.1 305,165.1 	"/>
	<polygon class="st6" points="301.4,161.9 282.5,161.9 282.4,163.1 301.2,163.1 	"/>
	<polygon class="st6" points="303.4,160 282.7,160 282.6,161.2 303.3,161.2 	"/>
	<polygon class="st17" points="292,126.8 274.9,126.8 275,125.6 292.1,125.6 	"/>
	<polygon class="st17" points="295.6,131.4 277.2,131.4 277.1,132.6 295.5,132.6 	"/>
	<polygon class="st17" points="292.6,129.5 277.3,129.5 277.2,130.7 292.5,130.7 	"/>
	<polygon class="st17" points="294.3,127.5 277.5,127.5 277.4,128.7 294.2,128.7 	"/>
	<polygon class="st6" points="305.9,155 283.1,155 283,156.2 305.8,156.2 	"/>
	<polygon class="st6" points="302.1,153.1 283.3,153.1 283.2,154.3 302,154.3 	"/>
	<polygon class="st6" points="304.2,151.1 283.5,151.1 283.4,152.3 304.1,152.3 	"/>
	<path class="st6" d="M345.7,115h-37.5c-1.3,0-2.4-1-2.4-2.3c0-0.1,0-0.2,0-0.3l2.8-31.7c0.1-1.4,1.3-2.5,2.7-2.5h37.5
		c1.3,0,2.4,1,2.4,2.3c0,0.1,0,0.2,0,0.3l-2.8,31.7C348.3,113.9,347.1,114.9,345.7,115z M311.4,79.2c-0.9,0-1.6,0.7-1.7,1.6
		l-2.8,31.7c0,0.4,0.1,0.8,0.3,1.1c0.3,0.3,0.6,0.4,1,0.4h37.5c0.9,0,1.6-0.7,1.7-1.6l2.8-31.7c0-0.4-0.1-0.8-0.4-1.1
		c-0.3-0.3-0.6-0.4-1-0.4H311.4z"/>
	<path class="st6" d="M350.2,87.6h-41.6c-0.3,0-0.5-0.2-0.5-0.5s0.2-0.5,0.5-0.5h41.6c0.3,0,0.5,0.2,0.5,0.5
		C350.7,87.4,350.5,87.6,350.2,87.6z"/>
	<path class="st6" d="M316,115L316,115c-0.3,0-0.5-0.3-0.5-0.5c0,0,0,0,0,0l2.4-27.4c0-0.3,0.3-0.5,0.5-0.4c0.3,0,0.5,0.3,0.5,0.5
		c0,0,0,0,0,0l-2.4,27.4C316.4,114.8,316.2,115,316,115z"/>
	<path class="st6" d="M345.3,90.9h-22.6c-0.3,0-0.5-0.2-0.5-0.5s0.2-0.5,0.5-0.5h22.6c0.3,0,0.5,0.2,0.5,0.5
		C345.8,90.6,345.6,90.9,345.3,90.9z"/>
	<path class="st6" d="M341.8,94.9h-19.4c-0.3,0-0.5-0.2-0.5-0.5c0-0.3,0.2-0.5,0.5-0.5h19.4c0.3,0,0.5,0.2,0.5,0.5
		S342.1,94.9,341.8,94.9z"/>
	<path class="st6" d="M333.3,99H322c-0.3,0-0.5-0.2-0.5-0.5s0.2-0.5,0.5-0.5h11.3c0.3,0,0.5,0.2,0.5,0.5
		C333.8,98.7,333.6,99,333.3,99z"/>
	<path class="st6" d="M335.1,107h-13.8c-0.3,0-0.5-0.2-0.5-0.5c0-0.3,0.2-0.5,0.5-0.5h13.8c0.3,0,0.5,0.2,0.5,0.5
		C335.6,106.8,335.4,107,335.1,107z"/>
	<path class="st6" d="M332.2,111.1h-11.3c-0.3,0-0.5-0.2-0.5-0.5s0.2-0.5,0.5-0.5h11.3c0.3,0,0.5,0.2,0.5,0.5
		S332.5,111.1,332.2,111.1z"/>
	<path class="st6" d="M338.8,111.1h-3.6c-0.3,0-0.5-0.2-0.5-0.5s0.2-0.5,0.5-0.5h3.6c0.3,0,0.5,0.2,0.5,0.5S339.1,111.1,338.8,111.1
		z"/>
	<path class="st6" d="M342.8,103h-21.1c-0.3,0-0.5-0.2-0.5-0.5s0.2-0.5,0.5-0.5h21.1c0.3,0,0.5,0.2,0.5,0.5S343.1,103,342.8,103z"/>
	<path class="st11" d="M268.1,111.9c-0.1,0-0.3-0.1-0.4-0.1c-0.2-0.2-0.2-0.5,0-0.7l2.5-2.5l-2.5-2.5c-0.2-0.2-0.2-0.5,0-0.7
		c0.2-0.2,0.5-0.2,0.7,0l0,0l2.9,2.9c0.2,0.2,0.2,0.5,0,0.7l-2.9,2.8C268.4,111.8,268.3,111.9,268.1,111.9z"/>
	<path class="st11" d="M259.6,111.9c-0.1,0-0.3-0.1-0.4-0.1l-2.9-2.8c-0.2-0.2-0.2-0.5,0-0.7l2.9-2.9c0.2-0.2,0.5-0.2,0.7,0
		c0.2,0.2,0.2,0.5,0,0.7l0,0l-2.5,2.5l2.5,2.5c0.2,0.2,0.2,0.5,0,0.7C259.9,111.8,259.7,111.9,259.6,111.9z"/>
	<path class="st11" d="M262.8,111.9c-0.1,0-0.1,0-0.2,0c-0.3-0.1-0.4-0.4-0.3-0.6l2.1-5.7c0.1-0.3,0.4-0.4,0.6-0.3
		c0.3,0.1,0.4,0.4,0.3,0.6l-2.1,5.7C263.2,111.7,263,111.9,262.8,111.9z"/>
	<path class="st6" d="M331.9,185.6c-0.1,0-0.3-0.1-0.4-0.1c-0.2-0.2-0.2-0.5,0-0.7c0,0,0,0,0,0l2.5-2.5l-2.5-2.5
		c-0.2-0.2-0.2-0.5,0-0.7c0.2-0.2,0.5-0.2,0.7,0l0,0l2.9,2.8c0.1,0.1,0.1,0.2,0.1,0.4c0,0.1-0.1,0.3-0.1,0.4l-2.9,2.9
		C332.2,185.6,332.1,185.7,331.9,185.6z"/>
	<path class="st6" d="M323.4,185.6c-0.1,0-0.3,0-0.4-0.1l-2.9-2.9c-0.2-0.2-0.2-0.5,0-0.7l2.9-2.8c0.2-0.2,0.5-0.2,0.7,0
		c0,0,0,0,0,0c0.2,0.2,0.2,0.5,0,0.7l-2.5,2.5l2.5,2.5c0.2,0.2,0.2,0.5,0,0.7C323.6,185.6,323.5,185.6,323.4,185.6z"/>
	<path class="st6" d="M326.6,185.6c-0.1,0-0.1,0-0.2,0c-0.3-0.1-0.4-0.4-0.3-0.6c0,0,0,0,0,0l2.1-5.7c0.1-0.3,0.4-0.4,0.6-0.3
		c0.3,0.1,0.4,0.4,0.3,0.6l-2.1,5.7C327,185.5,326.8,185.6,326.6,185.6z"/>
	<path class="st6" d="M309.4,72.2c-0.1,0-0.3-0.1-0.4-0.2c-0.2-0.2-0.2-0.5,0-0.7l2.5-2.5l-2.5-2.5c-0.2-0.2-0.2-0.5,0-0.7
		c0.2-0.2,0.5-0.2,0.7,0l2.9,2.8c0.2,0.2,0.2,0.5,0,0.7l-2.9,2.8C309.6,72.2,309.5,72.2,309.4,72.2z"/>
	<path class="st6" d="M300.8,72.2c-0.1,0-0.3-0.1-0.4-0.2l-2.9-2.8c-0.2-0.2-0.2-0.5,0-0.7l2.9-2.8c0.2-0.2,0.5-0.2,0.7,0
		c0.2,0.2,0.2,0.5,0,0.7l-2.5,2.5l2.5,2.5c0.2,0.2,0.2,0.5,0,0.7C301.1,72.2,300.9,72.2,300.8,72.2z"/>
	<path class="st6" d="M304,72.2h-0.2c-0.3-0.1-0.4-0.4-0.3-0.6l2.1-5.7c0.1-0.3,0.4-0.4,0.6-0.3c0.3,0.1,0.4,0.4,0.3,0.6l-2.1,5.7
		C304.4,72.1,304.2,72.3,304,72.2z"/>
</g>
</svg>
